<?xml version="1.0" encoding="utf-8"?>
<!-- Generator: Adobe Illustrator 17.0.0, SVG Export Plug-In . SVG Version: 6.00 Build 0)  -->
<!DOCTYPE svg PUBLIC "-//W3C//DTD SVG 1.1//EN" "http://www.w3.org/Graphics/SVG/1.1/DTD/svg11.dtd">
<svg version="1.1" id="Layer_1" xmlns="http://www.w3.org/2000/svg" xmlns:xlink="http://www.w3.org/1999/xlink" x="0px" y="0px"
	 width="581.5px" height="792px" viewBox="0 0 581.5 792" enable-background="new 0 0 581.5 792" xml:space="preserve">
<g>
	<g>
		<path opacity="0.02" fill="#4C4C4C" enable-background="new    " d="M194.632,5.766V57.11c0,2.185,1.274,4.188,3.277,5.098
			l77.015,38.599c3.823,2.003,8.375-0.91,8.375-5.098V44.365c0-2.185-1.275-4.188-3.277-5.098L203.007,0.668
			C199.183-1.334,194.632,1.397,194.632,5.766z"/>
	</g>
	<g>
		<path opacity="0.02" fill="#4C4C4C" enable-background="new    " d="M194.632,234.263v51.343c0,2.185,1.274,4.188,3.277,5.098
			l77.015,38.599c3.823,2.003,8.375-0.91,8.375-5.098v-51.343c0-2.185-1.275-4.188-3.277-5.098l-77.015-38.599
			C199.183,227.162,194.632,230.075,194.632,234.263z"/>
	</g>
	<g>
		<path opacity="0.02" fill="#4C4C4C" enable-background="new    " d="M194.632,386.837v51.343c0,2.185,1.274,4.188,3.277,5.098
			l77.015,38.599c3.823,2.003,8.375-0.91,8.375-5.098v-51.526c0-2.185-1.275-4.188-3.277-5.098l-77.015-38.599
			C199.183,379.736,194.632,382.467,194.632,386.837z"/>
	</g>
	<g>
		<path opacity="0.02" fill="#4C4C4C" enable-background="new    " d="M194.632,460.392v51.343c0,2.185,1.274,4.188,3.277,5.098
			l77.015,38.599c3.823,2.003,8.375-0.91,8.375-5.098v-51.343c0-2.185-1.275-4.188-3.277-5.098l-77.015-38.599
			C199.183,453.292,194.632,456.205,194.632,460.392z"/>
	</g>
	<g>
		<path opacity="0.02" fill="#4C4C4C" enable-background="new    " d="M194.632,689.071v51.343c0,2.185,1.274,4.188,3.277,5.098
			l77.015,38.599c3.823,2.003,8.375-0.91,8.375-5.098V727.67c0-2.185-1.275-4.188-3.277-5.098l-77.015-38.599
			C199.183,681.97,194.632,684.701,194.632,689.071z"/>
	</g>
</g>
<g>
	<g>
		<path opacity="0.02" fill="#4C4C4C" enable-background="new    " d="M0,5.766V57.11c0,2.185,1.274,4.188,3.277,5.098
			l77.015,38.599c3.823,2.003,8.375-0.91,8.375-5.098V44.365c0-2.185-1.274-4.188-3.277-5.098L8.375,0.668
			C4.552-1.334,0,1.397,0,5.766z"/>
	</g>
	<g>
		<path opacity="0.02" fill="#4C4C4C" enable-background="new    " d="M0,157.794v51.343c0,2.185,1.274,4.188,3.277,5.098
			l77.015,38.599c3.823,2.003,8.375-0.91,8.375-5.098v-51.343c0-2.185-1.274-4.188-3.277-5.098L8.375,152.696
			C4.552,150.693,0,153.606,0,157.794z"/>
	</g>
	<g>
		<path opacity="0.02" fill="#4C4C4C" enable-background="new    " d="M0,234.263v51.343c0,2.185,1.274,4.188,3.277,5.098
			l77.015,38.599c3.823,2.003,8.375-0.91,8.375-5.098v-51.343c0-2.185-1.274-4.188-3.277-5.098L8.375,229.165
			C4.552,227.162,0,230.075,0,234.263z"/>
	</g>
	<g>
		<path opacity="0.02" fill="#4C4C4C" enable-background="new    " d="M0,386.837v51.343c0,2.185,1.274,4.188,3.277,5.098
			l77.015,38.599c3.823,2.003,8.375-0.91,8.375-5.098v-51.526c0-2.185-1.274-4.188-3.277-5.098L8.375,381.557
			C4.552,379.736,0,382.467,0,386.837z"/>
	</g>
	<g>
		<path opacity="0.02" fill="#4C4C4C" enable-background="new    " d="M0,460.392v51.343c0,2.185,1.274,4.188,3.277,5.098
			l77.015,38.599c3.823,2.003,8.375-0.91,8.375-5.098v-51.343c0-2.185-1.274-4.188-3.277-5.098L8.375,455.295
			C4.552,453.292,0,456.205,0,460.392z"/>
	</g>
	<g>
		<path opacity="0.02" fill="#4C4C4C" enable-background="new    " d="M0,612.602v51.343c0,2.185,1.274,4.188,3.277,5.098
			l77.015,38.599c3.823,2.003,8.375-0.91,8.375-5.098v-51.343c0-2.185-1.274-4.188-3.277-5.098L8.375,607.504
			C4.552,605.501,0,608.232,0,612.602z"/>
	</g>
	<g>
		<path opacity="0.02" fill="#4C4C4C" enable-background="new    " d="M0,689.071v51.343c0,2.185,1.274,4.188,3.277,5.098
			l77.015,38.599c3.823,2.003,8.375-0.91,8.375-5.098V727.67c0-2.185-1.274-4.188-3.277-5.098L8.375,683.973
			C4.552,681.97,0,684.701,0,689.071z"/>
	</g>
</g>
<g>
	<g>
		<path opacity="0.02" fill="#4C4C4C" enable-background="new    " d="M185.892,82.964v51.343c0,2.185-1.274,4.188-3.277,5.098
			L105.6,178.004c-3.823,2.003-8.375-0.91-8.375-5.098v-51.343c0-2.185,1.274-4.188,3.277-5.098l77.015-38.599
			C181.523,75.863,185.892,78.776,185.892,82.964z"/>
	</g>
	<g>
		<path opacity="0.02" fill="#4C4C4C" enable-background="new    " d="M185.892,158.704v51.343c0,2.185-1.274,4.188-3.277,5.098
			L105.6,253.744c-3.823,2.003-8.375-0.91-8.375-5.098v-51.343c0-2.185,1.274-4.188,3.277-5.098l77.015-38.599
			C181.523,151.604,185.892,154.335,185.892,158.704z"/>
	</g>
	<g>
		<path opacity="0.02" fill="#4C4C4C" enable-background="new    " d="M185.892,311.096v51.343c0,2.185-1.274,4.188-3.277,5.098
			L105.6,406.136c-3.823,2.003-8.375-0.91-8.375-5.098v-51.343c0-2.185,1.274-4.188,3.277-5.098l77.015-38.599
			C181.523,303.995,185.892,306.908,185.892,311.096z"/>
	</g>
	<g>
		<path opacity="0.02" fill="#4C4C4C" enable-background="new    " d="M185.892,387.565v51.343c0,2.185-1.274,4.188-3.277,5.098
			L105.6,482.605c-3.823,2.003-8.375-0.91-8.375-5.098v-51.343c0-2.185,1.274-4.188,3.277-5.098l77.015-38.599
			C181.523,380.464,185.892,383.377,185.892,387.565z"/>
	</g>
	<g>
		<path opacity="0.02" fill="#4C4C4C" enable-background="new    " d="M185.892,537.772v51.343c0,2.185-1.274,4.188-3.277,5.098
			L105.6,632.812c-3.823,2.003-8.375-0.91-8.375-5.098V576.37c0-2.185,1.274-4.188,3.277-5.098l77.015-38.599
			C181.523,530.671,185.892,533.402,185.892,537.772z"/>
	</g>
	<g>
		<path opacity="0.02" fill="#4C4C4C" enable-background="new    " d="M185.892,613.33v51.343c0,2.185-1.274,4.188-3.277,5.098
			L105.6,708.37c-3.823,2.003-8.375-0.91-8.375-5.098v-51.343c0-2.185,1.274-4.188,3.277-5.098l77.015-38.599
			C181.523,606.23,185.892,609.143,185.892,613.33z"/>
	</g>
</g>
<g>
	<g>
		<path opacity="0.02" fill="#4C4C4C" enable-background="new    " d="M380.706,82.964v51.343c0,2.185-1.275,4.188-3.277,5.098
			l-77.015,38.599c-3.823,2.003-8.375-0.91-8.375-5.098v-51.343c0-2.185,1.275-4.188,3.277-5.098l77.015-38.599
			C376.154,75.863,380.706,78.776,380.706,82.964z"/>
	</g>
	<g>
		<path opacity="0.02" fill="#4C4C4C" enable-background="new    " d="M380.706,311.096v51.343c0,2.185-1.275,4.188-3.277,5.098
			l-77.015,38.599c-3.823,2.003-8.375-0.91-8.375-5.098v-51.343c0-2.185,1.275-4.188,3.277-5.098l77.015-38.599
			C376.154,303.995,380.706,306.908,380.706,311.096z"/>
	</g>
	<g>
		<path opacity="0.02" fill="#4C4C4C" enable-background="new    " d="M380.706,537.772v51.343c0,2.185-1.275,4.188-3.277,5.098
			l-77.015,38.599c-3.823,2.003-8.375-0.91-8.375-5.098V576.37c0-2.185,1.275-4.188,3.277-5.098l77.015-38.599
			C376.154,530.671,380.706,533.402,380.706,537.772z"/>
	</g>
</g>
<g>
	<g>
		<path opacity="0.02" fill="#4C4C4C" enable-background="new    " d="M389.445,5.766V57.11c0,2.185,1.275,4.188,3.277,5.098
			l77.015,38.599c3.823,2.003,8.375-0.91,8.375-5.098V44.365c0-2.185-1.274-4.188-3.277-5.098L397.821,0.668
			C393.997-1.334,389.445,1.397,389.445,5.766z"/>
	</g>
	<g>
		<path opacity="0.02" fill="#4C4C4C" enable-background="new    " d="M389.445,82.235v51.343c0,2.185,1.275,4.188,3.277,5.098
			l77.015,38.599c3.823,2.003,8.375-0.91,8.375-5.098v-51.343c0-2.185-1.274-4.188-3.277-5.098l-77.015-38.599
			C393.997,75.135,389.445,77.866,389.445,82.235z"/>
	</g>
	<g>
		<path opacity="0.02" fill="#4C4C4C" enable-background="new    " d="M389.445,234.263v51.343c0,2.185,1.275,4.188,3.277,5.098
			l77.015,38.599c3.823,2.003,8.375-0.91,8.375-5.098v-51.343c0-2.185-1.274-4.188-3.277-5.098l-77.015-38.599
			C393.997,227.162,389.445,230.075,389.445,234.263z"/>
	</g>
	<g>
		<path opacity="0.02" fill="#4C4C4C" enable-background="new    " d="M389.445,310.368v51.343c0,2.185,1.275,4.188,3.277,5.098
			l77.015,38.599c3.823,2.003,8.375-0.91,8.375-5.098v-51.343c0-2.185-1.274-4.188-3.277-5.098l-77.015-38.599
			C393.997,303.267,389.445,305.998,389.445,310.368z"/>
	</g>
	<g>
		<path opacity="0.02" fill="#4C4C4C" enable-background="new    " d="M389.445,460.392v51.343c0,2.185,1.275,4.188,3.277,5.098
			l77.015,38.599c3.823,2.003,8.375-0.91,8.375-5.098v-51.343c0-2.185-1.275-4.188-3.277-5.098l-77.015-38.599
			C393.997,453.292,389.445,456.205,389.445,460.392z"/>
	</g>
	<g>
		<path opacity="0.02" fill="#4C4C4C" enable-background="new    " d="M389.445,536.861v51.343c0,2.185,1.275,4.188,3.277,5.098
			l77.015,38.599c3.823,2.003,8.375-0.91,8.375-5.098V575.46c0-2.185-1.275-4.188-3.277-5.098l-77.015-38.599
			C393.997,529.761,389.445,532.674,389.445,536.861z"/>
	</g>
	<g>
		<path opacity="0.02" fill="#4C4C4C" enable-background="new    " d="M389.445,689.071v51.343c0,2.185,1.275,4.188,3.277,5.098
			l77.015,38.599c3.823,2.003,8.375-0.91,8.375-5.098V727.67c0-2.185-1.274-4.188-3.277-5.098l-77.015-38.599
			C393.997,681.97,389.445,684.701,389.445,689.071z"/>
	</g>
</g>
<g>
	<g>
		<path opacity="0.02" fill="#4C4C4C" enable-background="new    " d="M575.338,158.704v51.343c0,2.185-1.275,4.188-3.277,5.098
			l-76.833,38.599c-3.823,2.003-8.375-0.91-8.375-5.098v-51.343c0-2.185,1.275-4.188,3.277-5.098l77.015-38.599
			C570.968,151.604,575.338,154.335,575.338,158.704z"/>
	</g>
	<g>
		<path opacity="0.02" fill="#4C4C4C" enable-background="new    " d="M575.338,235.173v51.343c0,2.185-1.275,4.188-3.277,5.098
			l-76.833,38.599c-3.823,2.003-8.375-0.91-8.375-5.098v-51.343c0-2.185,1.275-4.188,3.277-5.098l77.015-38.599
			C570.968,228.072,575.338,230.804,575.338,235.173z"/>
	</g>
	<g>
		<path opacity="0.02" fill="#4C4C4C" enable-background="new    " d="M575.338,387.565v51.343c0,2.185-1.275,4.188-3.277,5.098
			l-76.833,38.599c-3.823,2.003-8.375-0.91-8.375-5.098v-51.343c0-2.185,1.275-4.188,3.277-5.098l77.015-38.599
			C570.968,380.464,575.338,383.377,575.338,387.565z"/>
	</g>
	<g>
		<path opacity="0.02" fill="#4C4C4C" enable-background="new    " d="M575.338,613.33v51.343c0,2.185-1.275,4.188-3.277,5.098
			l-76.833,38.599c-3.823,2.003-8.375-0.91-8.375-5.098v-51.343c0-2.185,1.275-4.188,3.277-5.098l77.015-38.599
			C570.968,606.23,575.338,609.143,575.338,613.33z"/>
	</g>
</g>
</svg>
