<?xml version="1.0" encoding="utf-8"?>
<!-- Generator: Adobe Illustrator 17.0.0, SVG Export Plug-In . SVG Version: 6.00 Build 0)  -->
<!DOCTYPE svg PUBLIC "-//W3C//DTD SVG 1.1//EN" "http://www.w3.org/Graphics/SVG/1.1/DTD/svg11.dtd">
<svg version="1.1" id="Layer_1" xmlns="http://www.w3.org/2000/svg" xmlns:xlink="http://www.w3.org/1999/xlink" x="0px" y="0px"
	 width="109.79px" height="131.459px" viewBox="0 0 109.79 131.459" enable-background="new 0 0 109.79 131.459"
	 xml:space="preserve">
<path fill="#F57F27" d="M108.433,75.49L72.445,36.565c-0.747-0.808-1.358-2.369-1.358-3.469V2c0-1.1-0.9-2-2-2H40.308
	c-1.1,0-2,0.9-2,2v31.493c0,1.1-0.607,2.663-1.35,3.475L1.35,75.879C0.608,76.69,0,78.254,0,79.354v50.105c0,1.1,0.9,2,2,2h18.708
	c0,0-1.079-9.329,0-13.493c0,0,9.281,9.858,11.906,4.233c3.99-12.101-8.488-10.652-5.953-19.314
	c2.535-8.662,9.657-11.112,9.657-11.112s-0.773,8.535,6.085,10.583c5.048,1.392,8.181-0.863,7.673-9.525
	c-0.508-8.662-5.821-6.879-6.879-17.991s14.816-23.018,14.816-23.018s-1.037,11.181,2.117,16.471
	c1.873,6.616-5.993,4.891-5.235,9.987s2.832,4.693,5.235,4.762c2.402,0.069,3.969-5.292,3.969-5.292s9.239,7.339,9.789,15.081
	c0.55,7.742-10.604,8.926-10.583,15.081c0.021,6.154,5.339,7.572,6.879,7.673c4.254,0.069,6.614-8.996,6.614-8.996
	s8.445,3.9,10.054,11.641c1.609,7.741,0,13.229,0,13.229h20.939c1.1,0,2-0.9,2-2v-50.5C109.791,77.859,109.18,76.298,108.433,75.49z
	"/>
</svg>
